<svg xmlns="http://www.w3.org/2000/svg" width="800" height="240" viewBox="0 0 800 240">
  <defs>
    <linearGradient id="g" x1="0" y1="0" x2="1" y2="1">
      <stop offset="0" stop-color="#0ea5e9"/>
      <stop offset="1" stop-color="#7c3aed"/>
    </linearGradient>
  </defs>
  <rect x="24" y="24" width="192" height="192" rx="52" fill="url(#g)"/>
  <path d="M72 91c24-22 54-30 90-24 6 1 10 6 9 12l-3 40c-1 7-7 11-13 9-23-7-45-3-64 12l-3 44c-1 6-6 10-11 10H49c-7 0-11-6-11-12l5-90c0-3 2-6 4-8z" fill="#fff" opacity="0.95"/>
  <path d="M173 89c1-6 6-10 12-9 9 3 17 7 26 12 6 4 7 11 4 16l-14 22c-4 5-11 6-16 4-5-3-11-6-16-7-6-1-10-7-9-13l1-25z" fill="#fff" opacity="0.85"/>

  <text x="250" y="145" font-family="Open Sans, Inter, system-ui, -apple-system, Segoe UI, Roboto, Arial, sans-serif" font-size="92" font-weight="800" fill="#0b1220">Campus</text>
  <text x="252" y="190" font-family="Open Sans, Inter, system-ui, -apple-system, Segoe UI, Roboto, Arial, sans-serif" font-size="26" font-weight="600" fill="#64748b">Education Platform</text>
</svg>
