<svg xmlns="http://www.w3.org/2000/svg" width="1024" height="256" viewBox="0 0 1024 256">
  <defs>
    <linearGradient id="g" x1="0" y1="0" x2="1" y2="1">
      <stop offset="0" stop-color="#0ea5e9"/>
      <stop offset="1" stop-color="#7c3aed"/>
    </linearGradient>
  </defs>

  <rect x="32" y="32" width="192" height="192" rx="56" fill="url(#g)"/>
  <path d="M82 97c24-22 55-31 92-25 6 1 10 6 9 12l-4 42c-1 7-7 11-13 9-24-7-46-3-65 12l-3 46c-1 6-6 10-11 10H58c-7 0-11-6-11-12l5-93c0-3 2-6 4-8z" fill="#fff" opacity="0.95"/>
  <path d="M184 95c1-6 6-10 12-9 9 3 18 7 27 13 6 4 7 11 4 16l-15 23c-4 5-11 6-16 4-6-3-11-6-17-7-6-1-10-7-9-13l1-27z" fill="#fff" opacity="0.85"/>

  <text x="260" y="155" font-family="Open Sans, Inter, system-ui, -apple-system, Segoe UI, Roboto, Arial, sans-serif" font-size="96" font-weight="800" fill="#0b1220">Campus</text>
  <text x="262" y="205" font-family="Open Sans, Inter, system-ui, -apple-system, Segoe UI, Roboto, Arial, sans-serif" font-size="28" font-weight="600" fill="#64748b">Education Platform</text>
</svg>
