<svg xmlns="http://www.w3.org/2000/svg" width="512" height="512" viewBox="0 0 512 512">
  <defs>
    <linearGradient id="g" x1="0" y1="0" x2="1" y2="1">
      <stop offset="0" stop-color="#0ea5e9"/>
      <stop offset="1" stop-color="#7c3aed"/>
    </linearGradient>
  </defs>
  <rect x="40" y="40" width="432" height="432" rx="104" fill="url(#g)"/>
  <path d="M154 193c48-44 108-60 179-49 10 1 18 10 17 20l-5 79c-1 12-12 19-23 16-47-14-89-6-126 24l-5 86c-1 11-10 19-21 19h-56c-12 0-21-10-20-22l10-173c0-6 3-11 7-15z" fill="#fff" opacity="0.95"/>
  <path d="M346 190c1-11 11-19 22-16 17 5 33 13 49 23 10 6 13 19 6 29l-27 42c-6 9-19 12-29 6-10-6-20-11-31-14-11-2-18-12-17-23l2-47z" fill="#fff" opacity="0.85"/>
</svg>
