<svg xmlns="http://www.w3.org/2000/svg" width="64" height="64" viewBox="0 0 64 64">
  <defs>
    <linearGradient id="g" x1="0" y1="0" x2="1" y2="1">
      <stop offset="0" stop-color="#0ea5e9"/>
      <stop offset="1" stop-color="#7c3aed"/>
    </linearGradient>
  </defs>
  <rect x="6" y="6" width="52" height="52" rx="14" fill="url(#g)"/>
  <path d="M20 25c6-6 14-8 23-6 2 0 3 2 3 4l-1 10c0 2-2 3-4 3-6-2-11-1-16 3l-1 12c0 2-2 3-4 3h-8c-2 0-4-2-3-4l2-22c0-1 0-2 1-3z" fill="#fff" opacity="0.95"/>
</svg>
