<svg xmlns="http://www.w3.org/2000/svg" width="512" height="512" viewBox="0 0 512 512">
  <defs>
    <linearGradient id="g" x1="0" y1="0" x2="1" y2="1">
      <stop offset="0" stop-color="#2563eb"/>
      <stop offset="1" stop-color="#7c3aed"/>
    </linearGradient>
  </defs>
  <rect width="512" height="512" rx="96" fill="#0b1220"/>
  <rect x="36" y="36" width="440" height="440" rx="80" fill="url(#g)" opacity="0.18"/>
  <path fill="#ffffff" d="M256 100c-60 0-115.5 20-156.8 53.8v169.9C140.5 357.6 196 377.6 256 377.6s115.5-20 156.8-53.9V153.8C371.5 120 316 100 256 100zm0 48c37.3 0 72.6 9 103.2 25v122.2c-30.6 16-65.9 25-103.2 25s-72.6-9-103.2-25V173c30.6-16 65.9-25 103.2-25z"/>
  <path fill="#ffffff" opacity="0.9" d="M146 392c33.5 23.8 71 35.8 110 35.8s76.5-12 110-35.8v25.8c-34 19.8-71.6 29.7-110 29.7s-76-9.9-110-29.7V392z"/>
</svg>
